<svg xmlns="http://www.w3.org/2000/svg" viewBox="0 0 485.71 136.69"><defs><style>.cls-1{fill:#1477a4}.cls-2{fill:#707074}.cls-3{fill:#0d4f6f}</style></defs><g id="Capa_2" data-name="Capa 2"><g id="Capa_1-2" data-name="Capa 1"><path class="cls-1" d="M112.35 113.45H89.93V22.42H67.39V56.7H44.96V0h67.39v113.45z"/><path class="cls-1" d="M67.39 135.81H0V24.3h22.42v89.09h22.54v-34.3h22.43v56.72z"/><path class="cls-2" d="M165.23 14v3.83h-2.91v-4c0-5-1.91-8.73-7-8.73s-7 3.77-7 8.73v24.02c0 5 1.92 8.67 7 8.67s7-3.71 7-8.67v-5.49h2.91v5.29c0 6.69-2.91 11.71-10 11.71s-10-5-10-11.71V14c0-6.68 2.91-11.71 10-11.71s10 5.01 10 11.71ZM181.24 38.71 178.92 49h-2.78l10.12-46.4h4.43L201 49h-3l-2.32-10.26Zm.46-2.64h13.49l-6.81-30ZM221.9 2.67c7.08 0 9.93 3.9 9.93 10.45v4c0 5.43-2.12 8.53-6.68 9.59 4.76 1.06 6.68 4.43 6.68 9.46v7.21c0 1.92.13 4 1.12 5.56h-3.17c-.8-1.39-1-3-1-5.56v-7.25c0-6.15-3.37-7.87-8.66-7.87h-4.83V49h-3V2.67Zm-1.72 22.82c5.43 0 8.6-1.53 8.6-7.74v-4.37c0-5-1.91-7.93-6.94-7.93h-6.55v20ZM244.39 49V2.67h3v43.52H262V49ZM273 14c0-6.75 3.11-11.71 10.12-11.71s10.25 5 10.25 11.71v23.65c0 6.75-3.1 11.71-10.25 11.71S273 44.4 273 37.65Zm3 23.85c0 5 2 8.73 7.07 8.73s7.21-3.7 7.21-8.73V13.78c0-5-2-8.73-7.21-8.73S276 8.75 276 13.78ZM324.47 13.85v1h-2.91v-1.2c0-4.9-1.85-8.6-6.88-8.6s-6.88 3.64-6.88 8.53c0 11.24 16.74 11.44 16.74 24.21 0 6.68-2.91 11.57-10 11.57s-10-4.89-10-11.57v-2.38h2.91V38c0 5 1.92 8.53 7 8.53s7-3.57 7-8.53c0-11.11-16.74-11.31-16.74-24.21 0-6.95 3-11.44 9.86-11.51 7.06-.01 9.9 4.89 9.9 11.57Z"/><path class="cls-3" d="M157.49 135.81h-10.76V67.34h10.76v29.35h12.22V67.34h11v68.47h-11v-29.34h-12.22ZM208.55 67.34v52.82c0 4.89 2.15 6.65 5.58 6.65s5.57-1.76 5.57-6.65V67.34h10.18v52.14c0 11-5.48 17.21-16 17.21s-16-6.26-16-17.21V67.34ZM269.5 135.81c-.59-1.76-1-2.83-1-8.41v-10.76c0-6.36-2.15-8.7-7-8.7h-3.72v27.87H247V67.34h16.24c11.15 0 15.94 5.19 15.94 15.75v5.38c0 7-2.25 11.64-7 13.89 5.38 2.25 7.14 7.43 7.14 14.57v10.57c0 3.32.1 5.77 1.17 8.31Zm-11.74-58.69v21H262c4 0 6.45-1.76 6.45-7.23v-6.72c0-4.89-1.66-7-5.47-7ZM293 67.34h33.26v9.78H315v58.69h-10.77V77.12H293ZM379.76 67.34H413v9.78h-11.23v58.69H391V77.12h-11.24ZM427.5 67.34h10.76v68.47H427.5ZM485.71 67.34v9.59L465.26 126h20.45v9.78h-31.5v-9.58l20.45-49.11h-19.47v-9.75ZM371.76 135.81h-10.89L359 123.36h-13.22l-1.87 12.45H334l11-68.63h15.79Zm-7.36-83.14-10 10.89h-7.25l6.67-10.89Zm-17.25 61.38h10.39l-5.2-34.71Z"/></g></g></svg>